<svg xmlns="http://www.w3.org/2000/svg" fill="none" viewBox="0 0 1920 1080"><path fill="#181A1B" d="M0 0h1920v1080H0z"/><path fill="#F6F5F4" d="M621.4 416.6a461 461 0 0 0 84.3-.3v20a540.7 540.7 0 0 1-84.3.1v-19.8ZM634 480c-1.4 5.4-2.6 10.3-2.6 15.4 0 9.4 9.3 16.5 31 16.5 20 0 39.2-2.3 52.6-6l.1 21.1a244 244 0 0 1-52.2 5c-34.2 0-51.6-11.5-51.6-32.1 0-8.6 2-16 3-21.6L634 480Zm166-9V493h-51.2V471H800Zm42.4-58.6c2.6.3 7.2.6 12.3.6 8 0 41.4-.4 51.3-1 3.5-.4 8-1.1 10.8-1.7l10 13.2c-2.8 1.4-6.3 3.8-8.3 5.1-8.6 6.4-23.1 17.8-36 27.9a51 51 0 0 1 14-2.1c26.5 0 44.6 15.6 44.6 36.6 0 29.7-26 47.1-81.5 42.8l-5.2-19.7c41.4 5.4 66-3.3 66-23.1 0-11.9-10.8-20.7-27.9-20.7-23.4 0-39.6 14.8-55.8 31.2l-14.1-14.9c20.1-15.3 57-45.6 68.9-57.9-8.1.4-29 1.4-36.2 1.9-3.8.3-9.1.8-12.4 1.3l-.5-19.5Zm178.8 58.6V493H970V471h51.1ZM1107 419c-1-3.4-2.9-8.8-4.7-13.8l20.3-2.4c2.2 11.6 5.8 23.5 9.4 33a153 153 0 0 0 16.7 32.5c2.5 3.7 5.2 6.9 8 10l-9.2 13.4c-8.4-1.7-27.5-3.7-40-4.7l1.4-15.9c7.4.8 17.3 1.5 22 2a210 210 0 0 1-16.7-34c-3.3-8.2-5.4-15.1-7.2-20Zm-54.6 7.1c28 3.3 50.8 3.2 68.8 1.2a232 232 0 0 0 38.4-7.8l2.3 18.8c-10 2.8-22.8 5-34.8 6.4-20 2.4-43.7 3-74.4.4l-.3-19Zm30.1 51c-5 7.2-7.3 13.8-7.3 20.3 0 12.7 11.2 18 31.8 18.1 16.3 0 29.5-1.6 40-3.8l-1 19.1c-8.6 1.5-22 3.5-40.2 3.5-30.8 0-50-11.9-50-33.6 0-9.2 2.9-17.8 8-28l18.7 4.4Zm185.1-63c-1.6 2-3.1 4.5-4.8 7-7.5 10.7-18 29.9-25.3 43.3a33 33 0 0 1 17-4.7c11.3 0 18 7 18.7 19.6.3 6.7 0 18.7.7 25 .6 5.8 4.7 8.2 9.6 8.2 13 0 21.2-17 25.4-35.6l16.3 13.3c-8 25.7-21.7 42.8-44.8 42.8-16.7 0-24.3-10-25-20.8-.5-8.1-.5-20.2-1-26.4-.4-5.3-3.3-8.4-8.7-8.4-10.2 0-18.7 10.5-24 22.6-4 8.8-9.1 25.5-11.4 33.5l-21.1-7.2c11-30 41.7-91.2 49.8-105.6 1.8-3.9 4.6-8.9 7.3-15.2l21.3 8.6ZM797.7 589.6h1l-13 74.9h-.9l12.9-74.9Zm-46.9 52.8c.7-4.2 2-8 4.3-11.5a27 27 0 0 1 8.3-8.4 20 20 0 0 1 11.1-3.1c3 0 5.6.8 7.6 2.2 2 1.4 3.7 3.3 4.8 5.6a27 27 0 0 1-.4 23.4 29.3 29.3 0 0 1-4.8 7.4c-1.9 2.2-4.1 4-6.7 5.3-2.5 1.4-5.2 2-8.2 2-4 0-7.4-1-10-3.1-2.5-2.2-4.3-5-5.3-8.5-1-3.6-1.2-7.3-.7-11.3Zm1 0c-.5 3.8-.3 7.4.7 10.8 1 3.3 2.6 6 5 8.1 2.5 2 5.7 3.1 9.6 3.1 2.8 0 5.4-.6 7.7-2 2.5-1.2 4.6-2.9 6.6-5a30.4 30.4 0 0 0 7.3-15 24.5 24.5 0 0 0-2.4-14.6c-1.1-2.2-2.6-4-4.6-5.3-1.9-1.4-4.2-2.1-7-2.2a19 19 0 0 0-10.6 3c-3.3 2-6 4.7-8.2 8-2.1 3.4-3.5 7-4.1 11.1Zm60.8-44.6c0-.3 0-.6.3-.7.2-.2.4-.3.7-.3.3 0 .5.1.6.3.2.1.3.4.3.7 0 .2 0 .5-.3.7l-.6.2a1 1 0 0 1-.7-.2 1 1 0 0 1-.3-.7Zm-3.3 22.5h1l-7.7 44.2h-1l7.7-44.2Zm9.6 31.5c0 2 .4 4 1.1 6 .7 2 1.9 3.6 3.5 4.8a13.7 13.7 0 0 0 15.6-1.2c2.6-2 4.1-4.8 4.6-8.1.3-2.1 0-3.9-.9-5.2-.9-1.4-2.2-2.6-3.8-3.5-1.6-.9-3.4-1.6-5.3-2.3-2.1-.7-4-1.6-5.8-2.5-1.6-1-2.9-2.2-3.7-3.7a10 10 0 0 1-.8-6 12.5 12.5 0 0 1 7.2-9.2c2-1 4-1.3 6-1.3 3.6 0 6.3 1 8 2.9 1.7 1.8 3 4 3.6 6.7l-1 .3a15 15 0 0 0-3.3-6.3c-1.5-1.7-4-2.6-7.3-2.7-3 0-5.6.9-8 2.5-2.3 1.7-3.7 4-4.2 7a9 9 0 0 0 .7 5.8c.9 1.4 2.1 2.5 3.8 3.4 1.6.8 3.5 1.6 5.4 2.3 2 .6 3.8 1.4 5.4 2.5 1.7 1 3 2.2 4 3.7s1.2 3.3 1 5.6a14 14 0 0 1-7.7 10.6c-2.1 1-4.3 1.5-6.8 1.5-3 0-5.5-.7-7.3-2-1.7-1.3-3-3-3.7-5-.8-2-1.2-4.2-1.3-6.4l1-.2Zm38.5-9.4c-.5 3.9-.1 7.4 1.1 10.8 1.3 3.3 3.3 6 6 8.1 2.9 2 6.3 3.1 10.3 3.1 3.2 0 6.2-.6 8.9-1.8 2.6-1.2 4.8-2.5 6.5-3.9l-.2 1.2a25.8 25.8 0 0 1-6.5 3.8c-2.7 1.1-5.6 1.7-8.8 1.7a18 18 0 0 1-10.7-3.2 19 19 0 0 1-6.4-8.5 23.9 23.9 0 0 1-1.1-11.3 27.4 27.4 0 0 1 13.4-19.9c3.6-2 7.5-3.1 11.8-3.1 3 0 5.7.6 8.1 1.7a17 17 0 0 1 5.6 3.8l-.2 1.2a17 17 0 0 0-5.5-4c-2.4-1.2-5-1.8-8-1.8-4 0-7.8 1-11.3 3a26 26 0 0 0-8.6 8c-2.3 3.4-3.8 7-4.4 11.1Zm45 0c.6-4.2 2-8 4.5-11.5 2.3-3.5 5.3-6.3 8.9-8.4 3.6-2 7.6-3.1 11.9-3.1 4.2 0 7.8 1 10.6 3.2 3 2.2 5.1 5 6.5 8.6a22 22 0 0 1 1.1 11.2c-.6 4.2-2 8-4.5 11.5a26.5 26.5 0 0 1-9 8.4c-3.5 2-7.4 3-11.7 3a18 18 0 0 1-10.8-3.1 19 19 0 0 1-6.3-8.5 23.9 23.9 0 0 1-1.2-11.3Zm1 0c-.6 3.9-.2 7.4 1 10.8 1.3 3.3 3.3 6 6.1 8.1 2.8 2 6.2 3.1 10.2 3.1 4 0 7.8-1 11.3-3a26.4 26.4 0 0 0 13-19c.5-3.9 0-7.5-1.2-10.8a17 17 0 0 0-16.2-11.3c-4 0-7.8 1-11.2 3a26 26 0 0 0-8.7 8c-2.3 3.4-3.7 7-4.3 11.1Zm58.8-22-7.6 44.1h-1l7.7-44.2h1Zm15.9 1.9a12.2 12.2 0 0 0-5-2c-2.7 0-5 .8-7 2.6-1.8 1.8-3.4 4-4.5 6.7-1.2 2.6-2 5.3-2.5 8h-.5c.5-3 1.3-5.9 2.5-8.7 1.2-2.8 2.8-5.1 4.8-7 2-1.8 4.4-2.6 7.3-2.5 1 0 2 .3 2.9.7 1 .4 1.8.9 2.7 1.4l-.7.8Zm49.4-32.7h1l-12.9 74.9h-1l13-74.9Zm-46.8 52.8c.6-4.2 2-8 4.2-11.5a27 27 0 0 1 8.4-8.4 20 20 0 0 1 11.1-3.1c3 0 5.6.8 7.6 2.2 2 1.4 3.6 3.3 4.8 5.6a27.3 27.3 0 0 1-.4 23.4 29.5 29.5 0 0 1-4.8 7.4c-1.9 2.2-4.1 4-6.7 5.3-2.5 1.4-5.3 2-8.3 2-4 0-7.3-1-9.8-3.1-2.6-2.2-4.4-5-5.4-8.5-1-3.6-1.2-7.3-.7-11.3Zm1 0c-.5 3.8-.3 7.4.6 10.8 1 3.3 2.7 6 5.1 8.1 2.5 2 5.7 3.1 9.6 3.1 2.8 0 5.3-.6 7.7-2 2.4-1.2 4.6-2.9 6.5-5a30.6 30.6 0 0 0 7.3-15 24.7 24.7 0 0 0-2.3-14.6c-1.1-2.2-2.7-4-4.6-5.3-1.9-1.4-4.2-2.1-7-2.2a19 19 0 0 0-10.6 3c-3.3 2-6 4.7-8.2 8-2.1 3.4-3.5 7-4.1 11.1Zm91.6-52.8-12.9 74.9h-1l12.9-74.9h1Zm28.8 52.8a28.4 28.4 0 0 1-12.7 20c-3.3 2-7 3-11 3-3 0-5.6-.7-7.6-2.1-2-1.5-3.7-3.4-4.8-5.6a24.5 24.5 0 0 1-2.2-15.3 32.3 32.3 0 0 1 7.3-15.6c1.9-2.3 4-4 6.6-5.4 2.5-1.3 5.3-2 8.3-2 4.1 0 7.5 1 10 3.2 2.6 2.2 4.4 5 5.4 8.6a26 26 0 0 1 .7 11.2Zm-1 0c.6-3.8.4-7.4-.7-10.7-1-3.4-2.7-6.2-5.2-8.3a13.6 13.6 0 0 0-9.5-3c-2.7 0-5.3.6-7.7 1.9a23 23 0 0 0-6.6 5.1 31.7 31.7 0 0 0-7.2 15 24.7 24.7 0 0 0 2.3 14.6c1.2 2.2 2.7 4 4.7 5.3 1.9 1.3 4.2 2 6.9 2.1 3.9 0 7.5-.9 10.7-2.9 3.3-2 6-4.6 8.2-8 2.2-3.3 3.5-7 4.1-11Zm10 0c.5-4.2 2-8 4.4-11.5 2.3-3.5 5.3-6.3 8.9-8.4 3.6-2 7.6-3.1 11.9-3.1 4.2 0 7.8 1 10.6 3.2 3 2.2 5.1 5 6.5 8.6a22 22 0 0 1 1.1 11.2c-.6 4.2-2 8-4.5 11.5a26.6 26.6 0 0 1-9 8.4c-3.5 2-7.4 3-11.7 3a18 18 0 0 1-10.8-3.1 19 19 0 0 1-6.3-8.5 24 24 0 0 1-1.2-11.3Zm.9 0c-.6 3.9-.2 7.4 1 10.8 1.3 3.3 3.3 6 6 8.1 3 2 6.3 3.1 10.3 3.1 4 0 7.8-1 11.3-3a26.5 26.5 0 0 0 13-19c.5-3.9 0-7.5-1.2-10.8a17 17 0 0 0-16.2-11.3c-4 0-7.8 1-11.3 3a26 26 0 0 0-8.6 8c-2.3 3.4-3.7 7-4.3 11.1Zm51.5-22h15l-.3.9h-15l.3-1Zm9.5-15.4h1l-10.4 59.5h-1L1173 605Z"/></svg>